<svg width="228" height="33" viewBox="0 0 228 33" fill="none" xmlns="http://www.w3.org/2000/svg">
<path fill-rule="evenodd" clip-rule="evenodd" d="M15.337 23.7727H21.1197V10.6818C21.1197 5.05856 16.589 0.5 11 0.5C5.4111 0.5 0.880371 5.05856 0.880371 10.6818L0.880371 23.7727H6.66303V28.1364C6.66303 30.5464 8.60471 32.5 11 32.5C13.3954 32.5 15.337 30.5464 15.337 28.1364V23.7727ZM18.2284 20.8636V10.6818C18.2284 6.66521 14.9921 3.40909 11 3.40909C7.00794 3.40909 3.7717 6.66521 3.7717 10.6818V20.8636H9.55436V28.1364C9.55436 28.9397 10.2016 29.5909 11 29.5909C11.7985 29.5909 12.4457 28.9397 12.4457 28.1364V20.8636H18.2284Z" fill="#2EA4AB"/>
<path fill-rule="evenodd" clip-rule="evenodd" d="M3.65222 23.7727H6.66301V28.1364C6.66301 30.5464 8.60469 32.5 11 32.5C13.3953 32.5 15.337 30.5464 15.337 28.1364V23.7727H21.1197V10.6818C21.1197 9.37993 20.8768 8.13511 20.4342 6.99072L18.1023 9.32262C18.1851 9.76294 18.2283 10.2173 18.2283 10.6818V20.8636H12.4457V28.1364C12.4457 28.9397 11.7984 29.5909 11 29.5909C10.2016 29.5909 9.55434 28.9397 9.55434 28.1364V20.8636H6.56131L3.65222 23.7727Z" fill="#5D5FEF"/>
<path d="M53.3077 27.656V2.568H57.0597V27.656H53.3077ZM49.2477 3.576V6.768H39.5877V19.788L51.9077 19.256V22.392L35.8357 23.26V3.576H49.2477ZM79.7491 27.656V2.568H83.5011V27.656H79.7491ZM62.1371 22.952V3.576H75.7171V22.952H62.1371ZM65.8891 19.76H71.9651V6.768H65.8891V19.76ZM86.9545 20.012L89.1665 19.928L88.9425 8.336H92.5825L92.7785 19.76L94.9065 19.648L95.1025 8.336H98.7425L98.5185 19.48L100.899 19.368V22.504L86.9545 23.316V20.012ZM99.5825 11.332H102.019V2.848H105.659V27.012H102.019V14.58H99.5825V11.332ZM106.863 27.628V2.568H110.559V27.628H106.863ZM100.227 6.936H87.4585V3.744H100.227V6.936ZM130.112 12.256C130.112 13.5067 129.907 14.664 129.496 15.728C129.085 16.7733 128.516 17.6787 127.788 18.444C127.06 19.1907 126.201 19.7787 125.212 20.208C124.223 20.6187 123.149 20.824 121.992 20.824C120.835 20.824 119.761 20.6187 118.772 20.208C117.783 19.7787 116.924 19.1907 116.196 18.444C115.468 17.6787 114.899 16.7733 114.488 15.728C114.077 14.664 113.872 13.5067 113.872 12.256C113.872 11.0053 114.077 9.85733 114.488 8.812C114.899 7.748 115.468 6.84267 116.196 6.096C116.924 5.33067 117.783 4.74267 118.772 4.332C119.761 3.90267 120.835 3.688 121.992 3.688C123.149 3.688 124.223 3.90267 125.212 4.332C126.201 4.74267 127.06 5.33067 127.788 6.096C128.516 6.84267 129.085 7.748 129.496 8.812C129.907 9.85733 130.112 11.0053 130.112 12.256ZM126.36 12.256C126.36 11.4533 126.248 10.7253 126.024 10.072C125.819 9.4 125.52 8.83067 125.128 8.364C124.755 7.87867 124.297 7.51467 123.756 7.272C123.215 7.01067 122.627 6.88 121.992 6.88C121.339 6.88 120.741 7.01067 120.2 7.272C119.677 7.51467 119.22 7.87867 118.828 8.364C118.455 8.83067 118.156 9.4 117.932 10.072C117.727 10.7253 117.624 11.4533 117.624 12.256C117.624 13.0773 117.727 13.8147 117.932 14.468C118.156 15.1213 118.455 15.6907 118.828 16.176C119.22 16.6427 119.677 17.0067 120.2 17.268C120.741 17.5107 121.339 17.632 121.992 17.632C122.627 17.632 123.215 17.5107 123.756 17.268C124.297 17.0067 124.755 16.6427 125.128 16.176C125.52 15.6907 125.819 15.1213 126.024 14.468C126.248 13.8147 126.36 13.0773 126.36 12.256ZM132.912 27.656V2.568H136.664V27.656H132.912Z" fill="#2EA4AB"/>
<path d="M151.152 27.124V19.76H153.28V25.276H170.612V27.124H151.152ZM157.004 9.232V15.504L166.356 15.392V17.184L147.848 17.464V15.616L154.82 15.532V9.232H157.004ZM167.7 21.524V2.624H169.828V10.184H173.132V12.088H169.828V21.524H167.7ZM161.12 13.32C161.288 12.6853 161.428 12.004 161.54 11.276C161.67 10.5293 161.773 9.792 161.848 9.064C161.922 8.31733 161.978 7.59867 162.016 6.908C162.053 6.21733 162.072 5.592 162.072 5.032H149.248V3.24H164.256C164.256 4.136 164.228 5.05067 164.172 5.984C164.134 6.91733 164.069 7.82267 163.976 8.7C163.901 9.57733 163.798 10.4173 163.668 11.22C163.537 12.004 163.388 12.704 163.22 13.32H161.12ZM194.813 27.6V2.624H196.941V27.6H194.813ZM176.305 23.456V12.256H186.609V5.368H176.305V3.52H188.737V14.104H178.433V21.44L192.881 20.74V22.56L176.305 23.456ZM216.859 23.26C216.056 22.6813 215.244 22.0187 214.423 21.272C213.62 20.5253 212.845 19.7227 212.099 18.864C211.371 17.9867 210.689 17.0813 210.055 16.148C209.681 15.588 209.336 15.0187 209.019 14.44C208.757 15.0747 208.468 15.6907 208.151 16.288C207.311 17.8933 206.321 19.34 205.183 20.628C204.063 21.8973 202.84 23.0267 201.515 24.016L200.087 22.532C201.319 21.6733 202.448 20.656 203.475 19.48C204.52 18.2853 205.416 16.9413 206.163 15.448C206.928 13.936 207.535 12.284 207.983 10.492C208.375 8.94267 208.636 7.29067 208.767 5.536H201.627V3.688H217.111V5.536H211.007C210.895 7.496 210.615 9.316 210.167 10.996C210.073 11.388 209.971 11.7613 209.859 12.116C210.68 13.964 211.819 15.7 213.275 17.324C214.768 18.9853 216.439 20.4133 218.287 21.608L216.859 23.26ZM220.135 27.6V2.624H222.263V12.144H226.323V14.048H222.263V27.6H220.135Z" fill="#2EA4AB"/>
</svg>
