<svg width="25" height="24" viewBox="0 0 25 24" fill="none" xmlns="http://www.w3.org/2000/svg">
    <g clip-path="url(#clip0_1257_2365)">
        <path fill-rule="evenodd" clip-rule="evenodd" d="M16.2393 12C16.2393 14.2091 14.4484 16 12.2393 16C10.0302 16 8.23932 14.2091 8.23932 12C8.23932 9.79086 10.0302 8 12.2393 8C14.4484 8 16.2393 9.79086 16.2393 12ZM14.2393 12C14.2393 13.1046 13.3439 14 12.2393 14C11.1347 14 10.2393 13.1046 10.2393 12C10.2393 10.8954 11.1347 10 12.2393 10C13.3439 10 14.2393 10.8954 14.2393 12Z" fill="#5D5FEF" />
        <path fill-rule="evenodd" clip-rule="evenodd" d="M12.2393 3C17.8308 3 22.5291 6.82432 23.8612 12C22.5291 17.1757 17.8308 21 12.2393 21C6.6478 21 1.9495 17.1757 0.617371 12C1.9495 6.82432 6.6478 3 12.2393 3ZM12.2393 19C7.76375 19 3.97064 16.0581 2.69655 12C3.97064 7.94186 7.76375 5 12.2393 5C16.7149 5 20.508 7.94186 21.7821 12C20.508 16.0581 16.7149 19 12.2393 19Z" fill="#5D5FEF" />
    </g>
    <defs>
        <clipPath id="clip0_1257_2365">
            <rect width="24" height="24" fill="white" transform="translate(0.239319)" />
        </clipPath>
    </defs>
</svg>