<svg width="49" height="48" viewBox="0 0 49 48" fill="none" xmlns="http://www.w3.org/2000/svg">
    <path d="M20.1191 36V32H16.1191V28H20.1191V24H24.1191V28H28.1191V32H24.1191V36H20.1191Z" fill="#2C3939" />
    <path d="M20.1191 36V32H16.1191V28H20.1191V24H24.1191V28H28.1191V32H24.1191V36H20.1191Z" fill="white" fill-opacity="0.6" />
    <path fill-rule="evenodd" clip-rule="evenodd" d="M12.1191 4C8.80544 4 6.11914 6.6863 6.11914 10V38C6.11914 41.3138 8.80544 44 12.1191 44H36.1191C39.4329 44 42.1191 41.3138 42.1191 38V18C42.1191 10.268 35.8511 4 28.1191 4H12.1191ZM12.1191 8H26.1191V18H38.1191V38C38.1191 39.1046 37.2237 40 36.1191 40H12.1191C11.0146 40 10.1191 39.1046 10.1191 38V10C10.1191 8.89544 11.0146 8 12.1191 8ZM30.1191 8.20004C33.3417 8.8542 36.0017 11.0581 37.2871 14H30.1191V8.20004Z" fill="#2C3939" />
    <path fill-rule="evenodd" clip-rule="evenodd" d="M12.1191 4C8.80544 4 6.11914 6.6863 6.11914 10V38C6.11914 41.3138 8.80544 44 12.1191 44H36.1191C39.4329 44 42.1191 41.3138 42.1191 38V18C42.1191 10.268 35.8511 4 28.1191 4H12.1191ZM12.1191 8H26.1191V18H38.1191V38C38.1191 39.1046 37.2237 40 36.1191 40H12.1191C11.0146 40 10.1191 39.1046 10.1191 38V10C10.1191 8.89544 11.0146 8 12.1191 8ZM30.1191 8.20004C33.3417 8.8542 36.0017 11.0581 37.2871 14H30.1191V8.20004Z" fill="white" fill-opacity="0.6" />
</svg>
    