<svg width="18" height="18" viewBox="0 0 18 18" fill="none" xmlns="http://www.w3.org/2000/svg">
<path fill-rule="evenodd" clip-rule="evenodd" d="M13.7393 10.8244C15.5721 8.47051 15.4065 5.06504 13.2427 2.90116C10.8995 0.558013 7.10051 0.558013 4.75736 2.90116C2.41421 5.24431 2.41421 9.04329 4.75736 11.3864C6.92125 13.5503 10.3267 13.7159 12.6806 11.8831C12.6907 11.8946 12.7013 11.9058 12.7123 11.9168L15.8943 15.0987C16.1872 15.3917 16.6621 15.3917 16.9549 15.0987C17.2478 14.8058 17.2478 14.331 16.9549 14.0381L13.773 10.8561C13.762 10.8452 13.7507 10.8346 13.7393 10.8244ZM12.1819 3.96182C13.9393 5.71918 13.9393 8.56839 12.1819 10.3258C10.4246 12.0831 7.57537 12.0831 5.81802 10.3258C4.06066 8.56839 4.06066 5.71918 5.81802 3.96182C7.57537 2.20446 10.4246 2.20446 12.1819 3.96182Z" fill="#2C3939"/>
<path fill-rule="evenodd" clip-rule="evenodd" d="M13.7393 10.8244C15.5721 8.47051 15.4065 5.06504 13.2427 2.90116C10.8995 0.558013 7.10051 0.558013 4.75736 2.90116C2.41421 5.24431 2.41421 9.04329 4.75736 11.3864C6.92125 13.5503 10.3267 13.7159 12.6806 11.8831C12.6907 11.8946 12.7013 11.9058 12.7123 11.9168L15.8943 15.0987C16.1872 15.3917 16.6621 15.3917 16.9549 15.0987C17.2478 14.8058 17.2478 14.331 16.9549 14.0381L13.773 10.8561C13.762 10.8452 13.7507 10.8346 13.7393 10.8244ZM12.1819 3.96182C13.9393 5.71918 13.9393 8.56839 12.1819 10.3258C10.4246 12.0831 7.57537 12.0831 5.81802 10.3258C4.06066 8.56839 4.06066 5.71918 5.81802 3.96182C7.57537 2.20446 10.4246 2.20446 12.1819 3.96182Z" fill="white" fill-opacity="0.4"/>
</svg>
