<svg width="25" height="24" viewBox="0 0 25 24" fill="none" xmlns="http://www.w3.org/2000/svg">
    <path fill-rule="evenodd" clip-rule="evenodd" d="M17.2393 5V4C17.2393 2.89543 16.3439 2 15.2393 2H9.23932C8.13475 2 7.23932 2.89543 7.23932 4V5H4.23932C3.68704 5 3.23932 5.44772 3.23932 6C3.23932 6.55228 3.68704 7 4.23932 7H5.23932V18C5.23932 19.6569 6.58247 21 8.23932 21H16.2393C17.8962 21 19.2393 19.6569 19.2393 18V7H20.2393C20.7916 7 21.2393 6.55228 21.2393 6C21.2393 5.44772 20.7916 5 20.2393 5H17.2393ZM15.2393 4H9.23932V5H15.2393V4ZM17.2393 7H7.23932V18C7.23932 18.5523 7.68704 19 8.23932 19H16.2393C16.7916 19 17.2393 18.5523 17.2393 18V7Z" fill="#FF9393" />
    <path d="M9.23932 9H11.2393V17H9.23932V9Z" fill="#FF9393" />
    <path d="M13.2393 9H15.2393V17H13.2393V9Z" fill="#FF9393" />
</svg>
    